<svg display="none" xmlns="http://www.w3.org/2000/svg">
	<symbol id="facebook" viewBox="0 0 13 13" width="13px" height="17px">
		<path style=" stroke:none;fill-rule:nonzero;fill:white;fill-opacity:1;" d="M 3.425781 6.921875 L 4.851562 6.921875 L 4.851562 12.789062 C 4.851562 12.90625 4.945312 13 5.0625 13 L 7.476562 13 C 7.59375 13 7.6875 12.90625 7.6875 12.789062 L 7.6875 6.953125 L 9.324219 6.953125 C 9.429688 6.953125 9.519531 6.871094 9.535156 6.765625 L 9.78125 4.605469 C 9.789062 4.546875 9.769531 4.488281 9.730469 4.441406 C 9.691406 4.398438 9.632812 4.371094 9.574219 4.371094 L 7.6875 4.371094 L 7.6875 3.019531 C 7.6875 2.609375 7.90625 2.402344 8.339844 2.402344 C 8.402344 2.402344 9.574219 2.402344 9.574219 2.402344 C 9.691406 2.402344 9.785156 2.308594 9.785156 2.195312 L 9.785156 0.210938 C 9.785156 0.09375 9.691406 0 9.574219 0 L 7.875 0 C 7.863281 0 7.835938 0 7.796875 0 C 7.5 0 6.476562 0.0585938 5.664062 0.804688 C 4.769531 1.628906 4.890625 2.617188 4.921875 2.789062 L 4.921875 4.371094 L 3.425781 4.371094 C 3.308594 4.371094 3.214844 4.464844 3.214844 4.582031 L 3.214844 6.714844 C 3.214844 6.828125 3.308594 6.921875 3.425781 6.921875 Z M 3.425781 6.921875 " />
	</symbol>
	<symbol id="twitter" viewBox="0 0 13 13" width="13px" height="17px" fill="white">
		<path style="stroke:none;fill-rule:nonzero;fill:rgb(white);fill-opacity:1;" d="M 12.707031 2.40625 C 12.5 2.496094 12.292969 2.574219 12.078125 2.636719 C 12.332031 2.347656 12.523438 2.011719 12.640625 1.640625 C 12.667969 1.558594 12.640625 1.46875 12.574219 1.414062 C 12.503906 1.359375 12.410156 1.351562 12.335938 1.394531 C 11.878906 1.667969 11.386719 1.859375 10.875 1.972656 C 10.355469 1.46875 9.648438 1.179688 8.917969 1.179688 C 7.382812 1.179688 6.128906 2.429688 6.128906 3.96875 C 6.128906 4.089844 6.136719 4.210938 6.152344 4.328125 C 4.242188 4.160156 2.46875 3.222656 1.246094 1.726562 C 1.203125 1.675781 1.136719 1.644531 1.070312 1.652344 C 1 1.65625 0.9375 1.695312 0.902344 1.753906 C 0.65625 2.179688 0.527344 2.664062 0.527344 3.15625 C 0.527344 3.832031 0.765625 4.46875 1.191406 4.96875 C 1.0625 4.921875 0.9375 4.867188 0.816406 4.800781 C 0.753906 4.765625 0.675781 4.765625 0.609375 4.800781 C 0.546875 4.839844 0.507812 4.90625 0.503906 4.980469 C 0.503906 4.992188 0.503906 5.003906 0.503906 5.015625 C 0.503906 6.019531 1.046875 6.921875 1.871094 7.414062 C 1.800781 7.410156 1.730469 7.398438 1.660156 7.386719 C 1.585938 7.371094 1.511719 7.398438 1.460938 7.453125 C 1.414062 7.507812 1.398438 7.585938 1.421875 7.65625 C 1.726562 8.609375 2.511719 9.3125 3.464844 9.527344 C 2.675781 10.019531 1.773438 10.277344 0.824219 10.277344 C 0.628906 10.277344 0.429688 10.265625 0.234375 10.246094 C 0.136719 10.234375 0.046875 10.289062 0.0117188 10.382812 C -0.0195312 10.472656 0.015625 10.574219 0.0976562 10.628906 C 1.3125 11.410156 2.722656 11.820312 4.167969 11.820312 C 7.007812 11.820312 8.785156 10.480469 9.777344 9.359375 C 11.011719 7.957031 11.71875 6.101562 11.71875 4.269531 C 11.71875 4.191406 11.71875 4.113281 11.714844 4.039062 C 12.203125 3.671875 12.625 3.226562 12.964844 2.714844 C 13.015625 2.636719 13.011719 2.535156 12.949219 2.464844 C 12.890625 2.390625 12.789062 2.367188 12.707031 2.40625 Z M 12.707031 2.40625 " />
	</symbol>
	<symbol id="lenkidin" viewBox="0 0 13 13" width="13px" height="17px" fill="white">
		<path style="stroke:none;fill-rule:nonzero;fill-opacity:1;" d="M 3.027344 4.183594 L 0.417969 4.183594 C 0.300781 4.183594 0.207031 4.277344 0.207031 4.390625 L 0.207031 12.777344 C 0.207031 12.890625 0.300781 12.984375 0.417969 12.984375 L 3.027344 12.984375 C 3.140625 12.984375 3.234375 12.890625 3.234375 12.777344 L 3.234375 4.390625 C 3.234375 4.277344 3.140625 4.183594 3.027344 4.183594 Z M 3.027344 4.183594 " />
		<path style="stroke:none;fill-rule:nonzero;fill-opacity:1;" d="M 1.722656 0.015625 C 0.773438 0.015625 0 0.785156 0 1.734375 C 0 2.683594 0.773438 3.457031 1.722656 3.457031 C 2.671875 3.457031 3.441406 2.683594 3.441406 1.734375 C 3.441406 0.785156 2.671875 0.015625 1.722656 0.015625 Z M 1.722656 0.015625 " />
		<path style="stroke:none;fill-rule:nonzero;fill-opacity:1;" d="M 9.664062 3.972656 C 8.617188 3.972656 7.839844 4.425781 7.371094 4.9375 L 7.371094 4.390625 C 7.371094 4.277344 7.277344 4.183594 7.160156 4.183594 L 4.664062 4.183594 C 4.546875 4.183594 4.453125 4.277344 4.453125 4.390625 L 4.453125 12.777344 C 4.453125 12.890625 4.546875 12.984375 4.664062 12.984375 L 7.265625 12.984375 C 7.382812 12.984375 7.476562 12.890625 7.476562 12.777344 L 7.476562 8.628906 C 7.476562 7.230469 7.855469 6.683594 8.828125 6.683594 C 9.890625 6.683594 9.976562 7.558594 9.976562 8.699219 L 9.976562 12.777344 C 9.976562 12.890625 10.070312 12.984375 10.183594 12.984375 L 12.789062 12.984375 C 12.90625 12.984375 13 12.890625 13 12.777344 L 13 8.175781 C 13 6.097656 12.605469 3.972656 9.664062 3.972656 Z M 9.664062 3.972656 " />
	</symbol>
	<symbol id="phone" viewBox="0 0 13 13" width="13px" height="17px" fill="white">
		<path style="stroke:none;fill-rule:nonzero;fill-opacity:1;" d="M 2.683594 12.070312 C 2.683594 12.582031 3.074219 13 3.550781 13 L 9.449219 13 C 9.925781 13 10.316406 12.582031 10.316406 12.070312 L 10.316406 0.929688 C 10.316406 0.417969 9.925781 0 9.449219 0 L 3.550781 0 C 3.074219 0 2.683594 0.417969 2.683594 0.929688 Z M 3.203125 2.019531 L 9.796875 2.019531 L 9.796875 9.851562 L 3.203125 9.851562 Z M 3.203125 0.929688 C 3.203125 0.703125 3.359375 0.519531 3.550781 0.519531 L 9.449219 0.519531 C 9.640625 0.519531 9.796875 0.703125 9.796875 0.929688 L 9.796875 1.503906 L 3.203125 1.503906 Z M 9.796875 12.070312 C 9.796875 12.296875 9.640625 12.480469 9.449219 12.480469 L 3.550781 12.480469 C 3.359375 12.480469 3.203125 12.296875 3.203125 12.070312 L 3.203125 10.371094 L 9.796875 10.371094 Z M 9.796875 12.070312 " />
		<path style="stroke:none;fill-rule:nonzero;fill-opacity:1;" d="M 6.5 12.140625 C 6.902344 12.140625 7.230469 11.8125 7.230469 11.414062 C 7.230469 11.011719 6.902344 10.683594 6.5 10.683594 C 6.097656 10.683594 5.769531 11.011719 5.769531 11.414062 C 5.769531 11.8125 6.097656 12.140625 6.5 12.140625 Z M 6.5 11.203125 C 6.617188 11.203125 6.710938 11.296875 6.710938 11.414062 C 6.710938 11.527344 6.617188 11.625 6.5 11.625 C 6.382812 11.625 6.289062 11.527344 6.289062 11.414062 C 6.289062 11.296875 6.382812 11.203125 6.5 11.203125 Z M 6.5 11.203125 " />
		<path style="stroke:none;fill-rule:nonzero;fill-opacity:1;" d="M 6.742188 0.777344 L 6.257812 0.777344 C 6.117188 0.777344 6 0.894531 6 1.039062 C 6 1.179688 6.117188 1.296875 6.257812 1.296875 L 6.742188 1.296875 C 6.882812 1.296875 7 1.179688 7 1.039062 C 7 0.894531 6.882812 0.777344 6.742188 0.777344 Z M 6.742188 0.777344 " />
		<path style="stroke:none;fill-rule:nonzero;fill-opacity:1;" d="M 3.949219 4.292969 C 3.808594 4.292969 3.691406 4.410156 3.691406 4.554688 L 3.691406 9.117188 C 3.691406 9.261719 3.808594 9.375 3.949219 9.375 C 4.09375 9.375 4.207031 9.261719 4.207031 9.117188 L 4.207031 4.554688 C 4.207031 4.410156 4.09375 4.292969 3.949219 4.292969 Z M 3.949219 4.292969 " />
		<path style="stroke:none;fill-rule:nonzero;fill-opacity:1;" d="M 3.949219 2.550781 C 3.808594 2.550781 3.691406 2.667969 3.691406 2.808594 L 3.691406 3.507812 C 3.691406 3.648438 3.808594 3.765625 3.949219 3.765625 C 4.09375 3.765625 4.207031 3.648438 4.207031 3.507812 L 4.207031 2.808594 C 4.207031 2.667969 4.09375 2.550781 3.949219 2.550781 Z M 3.949219 2.550781 " />
	</symbol>
</svg>
