<svg display="none" xmlns="http://www.w3.org/2000/svg">
	<symbol id="facebook" viewBox="0 0 13 13" >
		<path fill="white"  height='15px' white='15px' style=" stroke:none;fill-rule:nonzero;fill-opacity:1;" d="M 3.425781 6.921875 L 4.851562 6.921875 L 4.851562 12.789062 C 4.851562 12.90625 4.945312 13 5.0625 13 L 7.476562 13 C 7.59375 13 7.6875 12.90625 7.6875 12.789062 L 7.6875 6.953125 L 9.324219 6.953125 C 9.429688 6.953125 9.519531 6.871094 9.535156 6.765625 L 9.78125 4.605469 C 9.789062 4.546875 9.769531 4.488281 9.730469 4.441406 C 9.691406 4.398438 9.632812 4.371094 9.574219 4.371094 L 7.6875 4.371094 L 7.6875 3.019531 C 7.6875 2.609375 7.90625 2.402344 8.339844 2.402344 C 8.402344 2.402344 9.574219 2.402344 9.574219 2.402344 C 9.691406 2.402344 9.785156 2.308594 9.785156 2.195312 L 9.785156 0.210938 C 9.785156 0.09375 9.691406 0 9.574219 0 L 7.875 0 C 7.863281 0 7.835938 0 7.796875 0 C 7.5 0 6.476562 0.0585938 5.664062 0.804688 C 4.769531 1.628906 4.890625 2.617188 4.921875 2.789062 L 4.921875 4.371094 L 3.425781 4.371094 C 3.308594 4.371094 3.214844 4.464844 3.214844 4.582031 L 3.214844 6.714844 C 3.214844 6.828125 3.308594 6.921875 3.425781 6.921875 Z M 3.425781 6.921875 " />
	</symbol>
	<symbol id="twitter" viewBox="0 0 13 13" fill="white">
		<path style="stroke:none;fill-rule:nonzero;fill:rgb(white);fill-opacity:1;" d="M 12.707031 2.40625 C 12.5 2.496094 12.292969 2.574219 12.078125 2.636719 C 12.332031 2.347656 12.523438 2.011719 12.640625 1.640625 C 12.667969 1.558594 12.640625 1.46875 12.574219 1.414062 C 12.503906 1.359375 12.410156 1.351562 12.335938 1.394531 C 11.878906 1.667969 11.386719 1.859375 10.875 1.972656 C 10.355469 1.46875 9.648438 1.179688 8.917969 1.179688 C 7.382812 1.179688 6.128906 2.429688 6.128906 3.96875 C 6.128906 4.089844 6.136719 4.210938 6.152344 4.328125 C 4.242188 4.160156 2.46875 3.222656 1.246094 1.726562 C 1.203125 1.675781 1.136719 1.644531 1.070312 1.652344 C 1 1.65625 0.9375 1.695312 0.902344 1.753906 C 0.65625 2.179688 0.527344 2.664062 0.527344 3.15625 C 0.527344 3.832031 0.765625 4.46875 1.191406 4.96875 C 1.0625 4.921875 0.9375 4.867188 0.816406 4.800781 C 0.753906 4.765625 0.675781 4.765625 0.609375 4.800781 C 0.546875 4.839844 0.507812 4.90625 0.503906 4.980469 C 0.503906 4.992188 0.503906 5.003906 0.503906 5.015625 C 0.503906 6.019531 1.046875 6.921875 1.871094 7.414062 C 1.800781 7.410156 1.730469 7.398438 1.660156 7.386719 C 1.585938 7.371094 1.511719 7.398438 1.460938 7.453125 C 1.414062 7.507812 1.398438 7.585938 1.421875 7.65625 C 1.726562 8.609375 2.511719 9.3125 3.464844 9.527344 C 2.675781 10.019531 1.773438 10.277344 0.824219 10.277344 C 0.628906 10.277344 0.429688 10.265625 0.234375 10.246094 C 0.136719 10.234375 0.046875 10.289062 0.0117188 10.382812 C -0.0195312 10.472656 0.015625 10.574219 0.0976562 10.628906 C 1.3125 11.410156 2.722656 11.820312 4.167969 11.820312 C 7.007812 11.820312 8.785156 10.480469 9.777344 9.359375 C 11.011719 7.957031 11.71875 6.101562 11.71875 4.269531 C 11.71875 4.191406 11.71875 4.113281 11.714844 4.039062 C 12.203125 3.671875 12.625 3.226562 12.964844 2.714844 C 13.015625 2.636719 13.011719 2.535156 12.949219 2.464844 C 12.890625 2.390625 12.789062 2.367188 12.707031 2.40625 Z M 12.707031 2.40625 " />
	</symbol>
	<symbol id="lenkidin" viewBox="0 0 13 13" fill="white">
		<path style="stroke:none;fill-rule:nonzero;fill-opacity:1;" d="M 3.027344 4.183594 L 0.417969 4.183594 C 0.300781 4.183594 0.207031 4.277344 0.207031 4.390625 L 0.207031 12.777344 C 0.207031 12.890625 0.300781 12.984375 0.417969 12.984375 L 3.027344 12.984375 C 3.140625 12.984375 3.234375 12.890625 3.234375 12.777344 L 3.234375 4.390625 C 3.234375 4.277344 3.140625 4.183594 3.027344 4.183594 Z M 3.027344 4.183594 " />
		<path style="stroke:none;fill-rule:nonzero;fill-opacity:1;" d="M 1.722656 0.015625 C 0.773438 0.015625 0 0.785156 0 1.734375 C 0 2.683594 0.773438 3.457031 1.722656 3.457031 C 2.671875 3.457031 3.441406 2.683594 3.441406 1.734375 C 3.441406 0.785156 2.671875 0.015625 1.722656 0.015625 Z M 1.722656 0.015625 " />
		<path style="stroke:none;fill-rule:nonzero;fill-opacity:1;" d="M 9.664062 3.972656 C 8.617188 3.972656 7.839844 4.425781 7.371094 4.9375 L 7.371094 4.390625 C 7.371094 4.277344 7.277344 4.183594 7.160156 4.183594 L 4.664062 4.183594 C 4.546875 4.183594 4.453125 4.277344 4.453125 4.390625 L 4.453125 12.777344 C 4.453125 12.890625 4.546875 12.984375 4.664062 12.984375 L 7.265625 12.984375 C 7.382812 12.984375 7.476562 12.890625 7.476562 12.777344 L 7.476562 8.628906 C 7.476562 7.230469 7.855469 6.683594 8.828125 6.683594 C 9.890625 6.683594 9.976562 7.558594 9.976562 8.699219 L 9.976562 12.777344 C 9.976562 12.890625 10.070312 12.984375 10.183594 12.984375 L 12.789062 12.984375 C 12.90625 12.984375 13 12.890625 13 12.777344 L 13 8.175781 C 13 6.097656 12.605469 3.972656 9.664062 3.972656 Z M 9.664062 3.972656 " />
	</symbol>
	<symbol id="phone" viewBox="0 0 13 13" fill="white">
		<!--
		<path style=" stroke:none;fill-rule:nonzero;fill:rgb(white);fill-opacity:1;" d="M 9.917969 0 L 5.089844 0 C 4.304688 0 3.40625 0.933594 3.40625 1.753906 L 3.40625 13.253906 C 3.40625 14.074219 4.304688 15.011719 5.089844 15.011719 L 9.917969 15.011719 C 10.707031 15.011719 11.601562 14.074219 11.601562 13.253906 L 11.601562 1.753906 C 11.601562 0.933594 10.707031 0 9.917969 0 Z M 11.214844 13.253906 C 11.214844 13.882812 10.511719 14.625 9.917969 14.625 L 5.089844 14.625 C 4.496094 14.625 3.792969 13.882812 3.792969 13.253906 L 3.792969 1.753906 C 3.792969 1.128906 4.496094 0.386719 5.089844 0.386719 L 9.917969 0.386719 C 10.511719 0.386719 11.214844 1.128906 11.214844 1.753906 Z M 11.214844 13.253906 " />
		<path style=" stroke:none;fill-rule:nonzero;fill:rgb(white);fill-opacity:1;" d="M 7.785156 12.855469 C 7.773438 12.84375 7.757812 12.847656 7.746094 12.859375 C 7.738281 12.871094 7.738281 12.890625 7.75 12.898438 C 7.847656 12.976562 7.902344 13.089844 7.902344 13.210938 C 7.902344 13.429688 7.722656 13.609375 7.503906 13.609375 C 7.285156 13.609375 7.109375 13.429688 7.109375 13.210938 C 7.109375 13.089844 7.164062 12.972656 7.261719 12.898438 C 7.273438 12.886719 7.277344 12.871094 7.265625 12.859375 C 7.257812 12.847656 7.238281 12.84375 7.226562 12.851562 C 7.117188 12.941406 7.050781 13.070312 7.050781 13.210938 C 7.050781 13.460938 7.253906 13.664062 7.503906 13.664062 C 7.757812 13.664062 7.960938 13.460938 7.960938 13.210938 C 7.960938 13.070312 7.898438 12.941406 7.785156 12.855469 Z M 7.785156 12.855469 " />
		<path style=" stroke:none;fill-rule:nonzero;fill:rgb(white);fill-opacity:1;" d="M 7.503906 13.238281 C 7.519531 13.238281 7.535156 13.226562 7.535156 13.210938 L 7.535156 12.785156 C 7.535156 12.769531 7.519531 12.757812 7.503906 12.757812 C 7.488281 12.757812 7.476562 12.769531 7.476562 12.785156 L 7.476562 13.210938 C 7.476562 13.226562 7.488281 13.238281 7.503906 13.238281 Z M 7.503906 13.238281 " />
		<path style=" stroke:none;fill-rule:nonzero;fill:rgb(white);fill-opacity:1;" d="M 7.503906 12.355469 C 7.019531 12.355469 6.621094 12.753906 6.621094 13.238281 C 6.621094 13.726562 7.019531 14.121094 7.503906 14.121094 C 7.992188 14.121094 8.386719 13.726562 8.386719 13.238281 C 8.386719 12.753906 7.992188 12.355469 7.503906 12.355469 Z M 7.503906 13.992188 C 7.089844 13.992188 6.75 13.65625 6.75 13.238281 C 6.75 12.824219 7.089844 12.484375 7.503906 12.484375 C 7.921875 12.484375 8.257812 12.824219 8.257812 13.238281 C 8.257812 13.65625 7.921875 13.992188 7.503906 13.992188 Z M 7.503906 13.992188 " />
		<path style=" stroke:none;fill-rule:nonzero;fill:rgb(white);fill-opacity:1;" d="M 9.722656 2.367188 L 5.289062 2.367188 C 4.949219 2.367188 4.675781 2.640625 4.675781 2.980469 L 4.675781 11.1875 C 4.675781 11.523438 4.949219 11.800781 5.289062 11.800781 L 9.722656 11.800781 C 10.058594 11.800781 10.335938 11.523438 10.335938 11.1875 L 10.335938 2.980469 C 10.335938 2.640625 10.058594 2.367188 9.722656 2.367188 Z M 10.140625 11.1875 C 10.140625 11.417969 9.953125 11.605469 9.722656 11.605469 L 5.289062 11.605469 C 5.058594 11.605469 4.871094 11.417969 4.871094 11.1875 L 4.871094 2.980469 C 4.871094 2.75 5.058594 2.5625 5.289062 2.5625 L 9.722656 2.5625 C 9.953125 2.5625 10.140625 2.75 10.140625 2.980469 Z M 10.140625 11.1875 " />
		<path style=" stroke:none;fill-rule:nonzero;fill:rgb(white);fill-opacity:1;" d="M 6.4375 1.5 C 6.4375 1.589844 6.363281 1.664062 6.273438 1.664062 C 6.1875 1.664062 6.113281 1.589844 6.113281 1.5 C 6.113281 1.414062 6.1875 1.339844 6.273438 1.339844 C 6.363281 1.339844 6.4375 1.414062 6.4375 1.5 Z M 6.4375 1.5 " />
		<path style=" stroke:none;fill-rule:nonzero;fill:rgb(white);fill-opacity:1;" d="M 7.503906 1.5 C 7.503906 1.589844 7.433594 1.664062 7.34375 1.664062 C 7.253906 1.664062 7.183594 1.589844 7.183594 1.5 C 7.183594 1.414062 7.253906 1.339844 7.34375 1.339844 C 7.433594 1.339844 7.503906 1.414062 7.503906 1.5 Z M 7.503906 1.5 " />
		<path style=" stroke:none;fill-rule:nonzero;fill:rgb(white);fill-opacity:1;" d="M 8.574219 1.5 C 8.574219 1.589844 8.503906 1.664062 8.414062 1.664062 C 8.324219 1.664062 8.253906 1.589844 8.253906 1.5 C 8.253906 1.414062 8.324219 1.339844 8.414062 1.339844 C 8.503906 1.339844 8.574219 1.414062 8.574219 1.5 Z M 8.574219 1.5 " />
		-->
		<path style="stroke:none;fill-rule:nonzero;fill-opacity:1;" d="M 2.683594 12.070312 C 2.683594 12.582031 3.074219 13 3.550781 13 L 9.449219 13 C 9.925781 13 10.316406 12.582031 10.316406 12.070312 L 10.316406 0.929688 C 10.316406 0.417969 9.925781 0 9.449219 0 L 3.550781 0 C 3.074219 0 2.683594 0.417969 2.683594 0.929688 Z M 3.203125 2.019531 L 9.796875 2.019531 L 9.796875 9.851562 L 3.203125 9.851562 Z M 3.203125 0.929688 C 3.203125 0.703125 3.359375 0.519531 3.550781 0.519531 L 9.449219 0.519531 C 9.640625 0.519531 9.796875 0.703125 9.796875 0.929688 L 9.796875 1.503906 L 3.203125 1.503906 Z M 9.796875 12.070312 C 9.796875 12.296875 9.640625 12.480469 9.449219 12.480469 L 3.550781 12.480469 C 3.359375 12.480469 3.203125 12.296875 3.203125 12.070312 L 3.203125 10.371094 L 9.796875 10.371094 Z M 9.796875 12.070312 " />
		<path style="stroke:none;fill-rule:nonzero;fill-opacity:1;" d="M 6.5 12.140625 C 6.902344 12.140625 7.230469 11.8125 7.230469 11.414062 C 7.230469 11.011719 6.902344 10.683594 6.5 10.683594 C 6.097656 10.683594 5.769531 11.011719 5.769531 11.414062 C 5.769531 11.8125 6.097656 12.140625 6.5 12.140625 Z M 6.5 11.203125 C 6.617188 11.203125 6.710938 11.296875 6.710938 11.414062 C 6.710938 11.527344 6.617188 11.625 6.5 11.625 C 6.382812 11.625 6.289062 11.527344 6.289062 11.414062 C 6.289062 11.296875 6.382812 11.203125 6.5 11.203125 Z M 6.5 11.203125 " />
		<path style="stroke:none;fill-rule:nonzero;fill-opacity:1;" d="M 6.742188 0.777344 L 6.257812 0.777344 C 6.117188 0.777344 6 0.894531 6 1.039062 C 6 1.179688 6.117188 1.296875 6.257812 1.296875 L 6.742188 1.296875 C 6.882812 1.296875 7 1.179688 7 1.039062 C 7 0.894531 6.882812 0.777344 6.742188 0.777344 Z M 6.742188 0.777344 " />
		<path style="stroke:none;fill-rule:nonzero;fill-opacity:1;" d="M 3.949219 4.292969 C 3.808594 4.292969 3.691406 4.410156 3.691406 4.554688 L 3.691406 9.117188 C 3.691406 9.261719 3.808594 9.375 3.949219 9.375 C 4.09375 9.375 4.207031 9.261719 4.207031 9.117188 L 4.207031 4.554688 C 4.207031 4.410156 4.09375 4.292969 3.949219 4.292969 Z M 3.949219 4.292969 " />
		<path style="stroke:none;fill-rule:nonzero;fill-opacity:1;" d="M 3.949219 2.550781 C 3.808594 2.550781 3.691406 2.667969 3.691406 2.808594 L 3.691406 3.507812 C 3.691406 3.648438 3.808594 3.765625 3.949219 3.765625 C 4.09375 3.765625 4.207031 3.648438 4.207031 3.507812 L 4.207031 2.808594 C 4.207031 2.667969 4.09375 2.550781 3.949219 2.550781 Z M 3.949219 2.550781 " />
		<!-- <path style=" stroke:none;fill-rule:nonzero;fill:rgb(white);fill-opacity:1;" d="M 10 1.25 L 5 1.25 C 4.308594 1.25 3.75 1.808594 3.75 2.5 L 3.75 12.5 C 3.75 13.191406 4.308594 13.75 5 13.75 L 10 13.75 C 10.691406 13.75 11.25 13.191406 11.25 12.5 L 11.25 2.5 C 11.25 1.808594 10.691406 1.25 10 1.25 Z M 8.125 13.125 L 6.875 13.125 L 6.875 12.5 L 8.125 12.5 Z M 10 11.875 L 5 11.875 L 5 3.125 L 10 3.125 Z M 10 11.875 "/> -->
		<!--
		<path style=" stroke:none;fill-rule:nonzero;fill:rgb(white);fill-opacity:1;" d="M 9.917969 0 L 5.089844 0 C 4.304688 0 3.40625 0.933594 3.40625 1.753906 L 3.40625 13.253906 C 3.40625 14.074219 4.304688 15.011719 5.089844 15.011719 L 9.917969 15.011719 C 10.707031 15.011719 11.601562 14.074219 11.601562 13.253906 L 11.601562 1.753906 C 11.601562 0.933594 10.707031 0 9.917969 0 Z M 11.214844 13.253906 C 11.214844 13.882812 10.511719 14.625 9.917969 14.625 L 5.089844 14.625 C 4.496094 14.625 3.792969 13.882812 3.792969 13.253906 L 3.792969 1.753906 C 3.792969 1.128906 4.496094 0.386719 5.089844 0.386719 L 9.917969 0.386719 C 10.511719 0.386719 11.214844 1.128906 11.214844 1.753906 Z M 11.214844 13.253906 " />
		<path style=" stroke:none;fill-rule:nonzero;fill:rgb(white);fill-opacity:1;" d="M 7.785156 12.855469 C 7.773438 12.84375 7.757812 12.847656 7.746094 12.859375 C 7.738281 12.871094 7.738281 12.890625 7.75 12.898438 C 7.847656 12.976562 7.902344 13.089844 7.902344 13.210938 C 7.902344 13.429688 7.722656 13.609375 7.503906 13.609375 C 7.285156 13.609375 7.109375 13.429688 7.109375 13.210938 C 7.109375 13.089844 7.164062 12.972656 7.261719 12.898438 C 7.273438 12.886719 7.277344 12.871094 7.265625 12.859375 C 7.257812 12.847656 7.238281 12.84375 7.226562 12.851562 C 7.117188 12.941406 7.050781 13.070312 7.050781 13.210938 C 7.050781 13.460938 7.253906 13.664062 7.503906 13.664062 C 7.757812 13.664062 7.960938 13.460938 7.960938 13.210938 C 7.960938 13.070312 7.898438 12.941406 7.785156 12.855469 Z M 7.785156 12.855469 " />
		<path style=" stroke:none;fill-rule:nonzero;fill:rgb(white);fill-opacity:1;" d="M 7.503906 13.238281 C 7.519531 13.238281 7.535156 13.226562 7.535156 13.210938 L 7.535156 12.785156 C 7.535156 12.769531 7.519531 12.757812 7.503906 12.757812 C 7.488281 12.757812 7.476562 12.769531 7.476562 12.785156 L 7.476562 13.210938 C 7.476562 13.226562 7.488281 13.238281 7.503906 13.238281 Z M 7.503906 13.238281 " />
		<path style=" stroke:none;fill-rule:nonzero;fill:rgb(white);fill-opacity:1;" d="M 7.503906 12.355469 C 7.019531 12.355469 6.621094 12.753906 6.621094 13.238281 C 6.621094 13.726562 7.019531 14.121094 7.503906 14.121094 C 7.992188 14.121094 8.386719 13.726562 8.386719 13.238281 C 8.386719 12.753906 7.992188 12.355469 7.503906 12.355469 Z M 7.503906 13.992188 C 7.089844 13.992188 6.75 13.65625 6.75 13.238281 C 6.75 12.824219 7.089844 12.484375 7.503906 12.484375 C 7.921875 12.484375 8.257812 12.824219 8.257812 13.238281 C 8.257812 13.65625 7.921875 13.992188 7.503906 13.992188 Z M 7.503906 13.992188 " />
		<path style=" stroke:none;fill-rule:nonzero;fill:rgb(white);fill-opacity:1;" d="M 9.722656 2.367188 L 5.289062 2.367188 C 4.949219 2.367188 4.675781 2.640625 4.675781 2.980469 L 4.675781 11.1875 C 4.675781 11.523438 4.949219 11.800781 5.289062 11.800781 L 9.722656 11.800781 C 10.058594 11.800781 10.335938 11.523438 10.335938 11.1875 L 10.335938 2.980469 C 10.335938 2.640625 10.058594 2.367188 9.722656 2.367188 Z M 10.140625 11.1875 C 10.140625 11.417969 9.953125 11.605469 9.722656 11.605469 L 5.289062 11.605469 C 5.058594 11.605469 4.871094 11.417969 4.871094 11.1875 L 4.871094 2.980469 C 4.871094 2.75 5.058594 2.5625 5.289062 2.5625 L 9.722656 2.5625 C 9.953125 2.5625 10.140625 2.75 10.140625 2.980469 Z M 10.140625 11.1875 " />
		<path style=" stroke:none;fill-rule:nonzero;fill:rgb(white);fill-opacity:1;" d="M 6.4375 1.5 C 6.4375 1.589844 6.363281 1.664062 6.273438 1.664062 C 6.1875 1.664062 6.113281 1.589844 6.113281 1.5 C 6.113281 1.414062 6.1875 1.339844 6.273438 1.339844 C 6.363281 1.339844 6.4375 1.414062 6.4375 1.5 Z M 6.4375 1.5 " />
		<path style=" stroke:none;fill-rule:nonzero;fill:rgb(white);fill-opacity:1;" d="M 7.503906 1.5 C 7.503906 1.589844 7.433594 1.664062 7.34375 1.664062 C 7.253906 1.664062 7.183594 1.589844 7.183594 1.5 C 7.183594 1.414062 7.253906 1.339844 7.34375 1.339844 C 7.433594 1.339844 7.503906 1.414062 7.503906 1.5 Z M 7.503906 1.5 " />
		<path style=" stroke:none;fill-rule:nonzero;fill:rgb(white);fill-opacity:1;" d="M 8.574219 1.5 C 8.574219 1.589844 8.503906 1.664062 8.414062 1.664062 C 8.324219 1.664062 8.253906 1.589844 8.253906 1.5 C 8.253906 1.414062 8.324219 1.339844 8.414062 1.339844 C 8.503906 1.339844 8.574219 1.414062 8.574219 1.5 Z M 8.574219 1.5 " />
		-->
		<!--
		<path style=" stroke:none;fill-rule:nonzero;fill:rgb(0%,0%,0%);fill-opacity:1;" d="M 3.097656 13.925781 C 3.097656 14.519531 3.546875 15 4.097656 15 L 10.902344 15 C 11.453125 15 11.902344 14.519531 11.902344 13.925781 L 11.902344 1.074219 C 11.902344 0.480469 11.453125 0 10.902344 0 L 4.097656 0 C 3.546875 0 3.097656 0.480469 3.097656 1.074219 Z M 3.695312 2.332031 L 11.304688 2.332031 L 11.304688 11.367188 L 3.695312 11.367188 Z M 3.695312 1.074219 C 3.695312 0.8125 3.875 0.597656 4.097656 0.597656 L 10.902344 0.597656 C 11.125 0.597656 11.304688 0.8125 11.304688 1.074219 L 11.304688 1.734375 L 3.695312 1.734375 Z M 11.304688 13.925781 C 11.304688 14.1875 11.125 14.402344 10.902344 14.402344 L 4.097656 14.402344 C 3.875 14.402344 3.695312 14.1875 3.695312 13.925781 L 3.695312 11.964844 L 11.304688 11.964844 Z M 11.304688 13.925781 "/>
		<path style=" stroke:none;fill-rule:nonzero;fill:rgb(white);fill-opacity:1;" d="M 7.5 14.007812 C 7.964844 14.007812 8.339844 13.632812 8.339844 13.167969 C 8.339844 12.703125 7.964844 12.328125 7.5 12.328125 C 7.035156 12.328125 6.660156 12.703125 6.660156 13.167969 C 6.660156 13.632812 7.035156 14.007812 7.5 14.007812 Z M 7.5 12.925781 C 7.632812 12.925781 7.742188 13.035156 7.742188 13.167969 C 7.742188 13.300781 7.632812 13.410156 7.5 13.410156 C 7.367188 13.410156 7.257812 13.300781 7.257812 13.167969 C 7.257812 13.035156 7.367188 12.925781 7.5 12.925781 Z M 7.5 12.925781 "/>
		<path style=" stroke:none;fill-rule:nonzero;fill:rgb(white);fill-opacity:1;" d="M 7.777344 0.898438 L 7.222656 0.898438 C 7.054688 0.898438 6.921875 1.03125 6.921875 1.195312 C 6.921875 1.363281 7.054688 1.496094 7.222656 1.496094 L 7.777344 1.496094 C 7.945312 1.496094 8.078125 1.363281 8.078125 1.195312 C 8.078125 1.03125 7.945312 0.898438 7.777344 0.898438 Z M 7.777344 0.898438 "/>
		<path style=" stroke:none;fill-rule:nonzero;fill:rgb(white);fill-opacity:1;" d="M 4.558594 4.957031 C 4.390625 4.957031 4.257812 5.089844 4.257812 5.253906 L 4.257812 10.519531 C 4.257812 10.683594 4.390625 10.820312 4.558594 10.820312 C 4.722656 10.820312 4.855469 10.683594 4.855469 10.519531 L 4.855469 5.253906 C 4.855469 5.089844 4.722656 4.957031 4.558594 4.957031 Z M 4.558594 4.957031 "/>
		<path style=" stroke:none;fill-rule:nonzero;fill:rgb(white);fill-opacity:1;" d="M 4.558594 2.941406 C 4.390625 2.941406 4.257812 3.078125 4.257812 3.242188 L 4.257812 4.046875 C 4.257812 4.210938 4.390625 4.34375 4.558594 4.34375 C 4.722656 4.34375 4.855469 4.210938 4.855469 4.046875 L 4.855469 3.242188 C 4.855469 3.078125 4.722656 2.941406 4.558594 2.941406 Z M 4.558594 2.941406 "/>
		-->
	</symbol>
	<symbol id="search" viewBox="0 0 13 13" fill="white">
		<path style=" stroke:none;fill-rule:nonzero;fill:rgb(white);fill-opacity:1;" d="M 14.8125 13.925781 L 10.507812 9.617188 C 11.355469 8.601562 11.867188 7.300781 11.867188 5.878906 C 11.867188 2.640625 9.207031 0.0078125 5.9375 0.0078125 C 2.664062 0.0078125 0 2.644531 0 5.882812 C 0 9.125 2.660156 11.757812 5.929688 11.757812 C 7.320312 11.757812 8.597656 11.28125 9.613281 10.484375 L 13.933594 14.804688 C 14.183594 15.058594 14.558594 15.058594 14.8125 14.804688 C 15.0625 14.550781 15.0625 14.175781 14.8125 13.925781 Z M 1.261719 5.882812 C 1.261719 3.339844 3.355469 1.269531 5.929688 1.269531 C 8.503906 1.269531 10.597656 3.339844 10.597656 5.882812 C 10.597656 8.429688 8.503906 10.496094 5.929688 10.496094 C 3.355469 10.496094 1.261719 8.425781 1.261719 5.882812 Z M 1.261719 5.882812 " />
	</symbol>
	<symbol id="down-arrow" viewBox="0 0 13 13" fill='#000000'>
		<path style=" stroke:none;fill-rule:nonzero;fill-opacity:1;" d="M 7.5 11.429688 L 0 3.929688 L 0.355469 3.570312 L 7.5 10.714844 L 14.644531 3.570312 L 15 3.929688 Z M 7.5 11.429688 " />
	</symbol>
	<symbol id="chart-down" viewBox="0 0 13 13">
		<path style=" stroke:none;fill-rule:nonzero;fill:rgb(white);fill-opacity:1;" d="M 1.683594 1.246094 L 0 1.246094 L 0 13.792969 L 12.457031 13.792969 L 12.457031 12.109375 L 1.683594 12.109375 Z M 1.683594 1.246094 " />
		<path style=" stroke:none;fill-rule:nonzero;fill:rgb(white);fill-opacity:1;" d="M 8.910156 6.152344 L 11.242188 8.484375 L 9.847656 9.875 L 15.039062 10.789062 L 14.125 5.601562 L 12.832031 6.894531 L 8.910156 2.976562 L 6.429688 5.460938 L 4.09375 3.125 L 2.507812 4.714844 L 6.429688 8.636719 Z M 8.910156 6.152344 " />
	</symbol>
	<symbol id="profit-chart" viewBox="0 0 13 13">
		<path style=" stroke:none;fill-rule:nonzero;fill:rgb(white);fill-opacity:1;" d="M 1.714844 13.285156 L 1.714844 0 L 0 0 L 0 15 L 15 15 L 15 13.285156 Z M 1.714844 13.285156 " />
		<path style=" stroke:none;fill-rule:nonzero;fill:rgb(white);fill-opacity:1;" d="M 9.371094 8.355469 L 11.632812 5.117188 L 10.851562 4.570312 L 13.824219 3.179688 L 13.539062 6.449219 L 12.757812 5.902344 L 9.769531 10.175781 L 6.574219 8.320312 L 4.199219 11.398438 L 3.113281 10.5625 L 6.222656 6.527344 Z M 9.371094 8.355469 " />
	</symbol>
</svg>
